# xmcd
#
# Track frame offsets:
#	150
#	15972
#	28840
#	47817
#	69892
#	88585
#	111942
#	128857
#	147597
#	169445
#
# Disc length: 2460 seconds
#
# Revision: 1
# Processed by: cddbd v1.4PL0 Copyright (c) Steve Scherf et al.
# Submitted via: CDmax 2.0
#
DISCID=88099a0a
DTITLE=Ozark Mountain Daredevils - Concert Classics
DYEAR=1974
DGENRE=Country
TTITLE0=Chicken Train
TTITLE1=Homemade Wine
TTITLE2=Beauty In The River
TTITLE3=Love Makes Me Lover
TTITLE4=Country Girl
TTITLE5=Noah
TTITLE6=Commercial Success
TTITLE7=If You Wanna Go To Heaven
TTITLE8=Look Away
TTITLE9=The Road Master
EXTD=
EXTT0=
EXTT1=
EXTT2=
EXTT3=
EXTT4=
EXTT5=
EXTT6=
EXTT7=
EXTT8=
EXTT9=
PLAYORDER=
